<svg xmlns="http://www.w3.org/2000/svg" viewBox="0 0 179.5 46.5" fill="#f06027"><path d="M15 46.5c-.7 0-1.6 0-2.6-.1-1 0-2-.1-3-.3-1-.1-2.1-.3-3.1-.5-1-.2-2-.5-2.8-.8C1.2 44 0 42.5 0 40.3V10.4c0-.9.2-1.6.7-2.1.5-.5 1.2-.9 2-1.2C4.2 6.6 6 6.2 8.2 6c2.2-.2 4.4-.4 6.7-.4 5.5 0 9.7.9 12.6 2.8 2.9 1.8 4.4 4.7 4.4 8.5 0 1.9-.6 3.6-1.7 5-1.1 1.4-2.6 2.4-4.5 3 2.1.6 3.9 1.7 5.3 3.3 1.4 1.6 2.1 3.6 2.1 6 0 4.2-1.6 7.4-4.7 9.4C25.4 45.5 20.9 46.5 15 46.5zM10.9 21.9h4.7c1.8 0 3.2-.3 4-1 .8-.7 1.2-1.7 1.2-3 0-1.2-.5-2.1-1.4-2.8-1-.7-2.4-1-4.3-1-.6 0-1.4 0-2.2.1-.8 0-1.5.1-2 .2V21.9zM10.9 37.5c.6.2 1.4.3 2.3.4.9.1 1.8.1 2.7.1 1.7 0 3.1-.4 4.3-1.1 1.1-.7 1.7-1.8 1.7-3.3 0-1.4-.5-2.4-1.4-3-.9-.6-2.4-.9-4.3-.9h-5.2V37.5zM38.5 5.8c0-1.6.5-3 1.6-4.1C41.2.6 42.7 0 44.5 0s3.2.6 4.3 1.7c1.1 1.1 1.6 2.5 1.6 4.1 0 1.6-.5 3-1.6 4.1-1.1 1.1-2.5 1.7-4.3 1.7s-3.2-.6-4.3-1.7C39.1 8.7 38.5 7.4 38.5 5.8zM49.9 45.4c-.5.1-1.2.2-2.1.4C46.9 45.9 46 46 45.1 46s-1.8-.1-2.5-.2c-.7-.1-1.4-.4-1.9-.8-.5-.4-.9-.9-1.2-1.6C39.2 42.8 39 42 39 40.9v-26c.5-.1 1.2-.2 2.1-.4.9-.1 1.8-.2 2.8-.2.9 0 1.8.1 2.5.2.7.1 1.4.4 1.9.8.5.4.9.9 1.2 1.6.3.7.4 1.5.4 2.6V45.4zM73.3 46.5c-2.5 0-4.9-.4-7-1.1s-4-1.8-5.6-3.2c-1.6-1.4-2.9-3.2-3.8-5.3-.9-2.1-1.4-4.6-1.4-7.5 0-2.8.5-5.2 1.4-7.3.9-2 2.1-3.7 3.6-5 1.5-1.3 3.2-2.3 5.1-2.9 1.9-.6 3.9-.9 5.9-.9 2.3 0 4.3.3 6.2 1 1.9.7 3.5 1.6 4.8 2.8 1.3 1.2 2.4 2.6 3.1 4.3.7 1.7 1.1 3.5 1.1 5.4 0 1.5-.4 2.6-1.2 3.3-.8.8-1.9 1.3-3.4 1.5l-15.8 2.4c.5 1.4 1.4 2.5 2.9 3.2 1.5.7 3.1 1.1 5 1.1 1.7 0 3.4-.2 5-.7s2.8-1 3.8-1.6c.7.4 1.3 1 1.7 1.8.5.8.7 1.6.7 2.4 0 1.9-.9 3.3-2.7 4.3-1.4.7-2.9 1.2-4.6 1.5C76.4 46.4 74.8 46.5 73.3 46.5zM71.5 21.4c-1 0-1.9.2-2.7.5-.7.3-1.4.8-1.8 1.3-.5.5-.8 1.1-1.1 1.8-.2.7-.4 1.3-.4 2l10.9-1.8c-.1-.9-.6-1.7-1.4-2.6C74.3 21.8 73.1 21.4 71.5 21.4zM111.7 25.8c0-1.3-.4-2.3-1.1-2.9-.7-.6-1.8-.9-3-.9-.9 0-1.7.1-2.5.3-.8.2-1.5.5-2.1 1v22.2c-.4.1-1.1.3-2 .4C99.9 46 99 46 98 46c-.9 0-1.8-.1-2.5-.2-.7-.1-1.4-.4-1.9-.8-.5-.4-.9-.9-1.2-1.6C92.1 42.8 92 42 92 40.9V21.7c0-1.2.2-2.1.7-2.8.5-.7 1.2-1.4 2-2 1.5-1 3.3-1.9 5.5-2.5 2.2-.6 4.6-1 7.3-1 4.8 0 8.5 1.1 11.1 3.2s3.9 5 3.9 8.8v20c-.4.1-1.1.3-2 .4-.9.1-1.9.2-2.8.2-.9 0-1.8-.1-2.5-.2-.7-.1-1.4-.4-1.9-.8-.5-.4-.9-.9-1.2-1.6-.3-.7-.4-1.5-.4-2.6V25.8zM129 5.8c0-1.6.5-3 1.6-4.1 1.1-1.1 2.5-1.7 4.3-1.7s3.2.6 4.3 1.7c1.1 1.1 1.6 2.5 1.6 4.1 0 1.6-.5 3-1.6 4.1-1.1 1.1-2.5 1.7-4.3 1.7s-3.2-.6-4.3-1.7C129.6 8.7 129 7.4 129 5.8zM140.4 45.4c-.5.1-1.2.2-2.1.4-.9.1-1.8.2-2.8.2s-1.8-.1-2.5-.2c-.7-.1-1.4-.4-1.9-.8-.5-.4-.9-.9-1.2-1.6-.3-.7-.4-1.5-.4-2.6v-26c.5-.1 1.2-.2 2.1-.4.9-.1 1.8-.2 2.8-.2.9 0 1.8.1 2.5.2.7.1 1.4.4 1.9.8.5.4.9.9 1.2 1.6.3.7.4 1.5.4 2.6V45.4zM179.5 30c0 2.6-.4 5-1.2 7.1-.8 2.1-2 3.8-3.4 5.2-1.5 1.4-3.2 2.5-5.3 3.2-2 .7-4.3 1.1-6.8 1.1-2.5 0-4.8-.4-6.8-1.2-2-.8-3.8-1.9-5.3-3.3s-2.6-3.2-3.4-5.2c-.8-2-1.2-4.4-1.2-6.9 0-2.5.4-4.8 1.2-6.8.8-2 2-3.8 3.4-5.2 1.5-1.4 3.2-2.5 5.3-3.3s4.3-1.2 6.8-1.2c2.5 0 4.8.4 6.8 1.2 2 .8 3.8 1.9 5.3 3.3 1.5 1.4 2.6 3.2 3.4 5.2S179.5 27.5 179.5 30zM157.1 30c0 2.6.5 4.6 1.5 6 1 1.4 2.4 2.1 4.2 2.1s3.2-.7 4.1-2.1c1-1.4 1.4-3.4 1.4-6 0-2.6-.5-4.5-1.5-5.9-1-1.4-2.4-2.1-4.2-2.1s-3.2.7-4.2 2.1C157.6 25.4 157.1 27.4 157.1 30z"/></svg>